<svg width="30" height="34" viewBox="0 0 30 34" fill="none" xmlns="http://www.w3.org/2000/svg">
<path d="M3.79833 15.1128L3.79686 23.5357L14.9946 30L29.1845 21.6493V25.3416L14.9946 33.5449L0.729702 25.3091V16.9652L3.79833 15.1128ZM0.700195 8.8374L14.9946 0.601562L29.2595 8.8374V17.4089L26.1908 19.0504L26.1905 10.6089L14.9946 4.14458L0.700195 12.5617V8.8374Z" fill="url(#paint0_radial)"/>
<path fill-rule="evenodd" clip-rule="evenodd" d="M14.9948 8.71311L22.2345 12.8929V21.2525L14.9948 25.4323L7.75522 21.2525V12.8929L14.9948 8.71311ZM14.9948 12.5698L11.0952 14.8213V19.3242L14.9948 21.5756L18.8945 19.3242V14.8213L14.9948 12.5698Z" fill="url(#paint1_radial)"/>
<defs>
<radialGradient id="paint0_radial" cx="0" cy="0" r="1" gradientUnits="userSpaceOnUse" gradientTransform="translate(27.9613 17.2396) rotate(-167.275) scale(27.9476 85.1367)">
<stop stop-color="#01E1FF"/>
<stop offset="0.0001" stop-color="#D5D9FF"/>
<stop offset="0.239583" stop-color="#37D2FB"/>
<stop offset="0.662283" stop-color="#95B8F3"/>
<stop offset="0.911458" stop-color="#D0E8FC" stop-opacity="0.940974"/>
<stop offset="1" stop-color="#E6F9FF" stop-opacity="0.92"/>
</radialGradient>
<radialGradient id="paint1_radial" cx="0" cy="0" r="1" gradientUnits="userSpaceOnUse" gradientTransform="translate(27.9613 17.2396) rotate(-167.275) scale(27.9476 85.1367)">
<stop stop-color="#01E1FF"/>
<stop offset="0.0001" stop-color="#D5D9FF"/>
<stop offset="0.239583" stop-color="#37D2FB"/>
<stop offset="0.662283" stop-color="#95B8F3"/>
<stop offset="0.911458" stop-color="#D0E8FC" stop-opacity="0.940974"/>
<stop offset="1" stop-color="#E6F9FF" stop-opacity="0.92"/>
</radialGradient>
</defs>
</svg>
