<svg width="40" height="40" viewBox="0 0 40 40" fill="none" xmlns="http://www.w3.org/2000/svg">
<path fill-rule="evenodd" clip-rule="evenodd" d="M6.00036 7.01183C5.01909 8.29833 4.47814 10.5152 4.90883 14.1176L0.763358 14.6132C0.278014 10.5538 0.740039 7.02426 2.68077 4.47984C4.67941 1.85951 7.8494 0.785156 11.6021 0.785156C19.231 0.785156 26.3312 5.12346 32.9114 13.03L29.7024 15.7007C23.5296 8.28367 17.4932 4.96016 11.6021 4.96016C8.59474 4.96016 6.92371 5.80126 6.00036 7.01183ZM33.2851 6.64942C32.0337 5.62385 29.837 5.00586 26.2218 5.31058L25.8712 1.15033C29.9451 0.806953 33.4563 1.39187 35.9314 3.42022C38.4804 5.50909 39.4435 8.71465 39.3125 12.465C39.0463 20.0893 34.4628 27.0338 26.3314 33.3341L23.7743 30.0338C31.4023 24.1236 34.9345 18.2069 35.1401 12.3193C35.245 9.31382 34.4627 7.61446 33.2851 6.64942ZM15.3417 10.1969C8.03348 16.4982 4.81582 22.5917 4.91864 28.4819C4.97112 31.4888 5.84126 33.1449 7.06777 34.047C8.37119 35.0056 10.5972 35.5078 14.1915 35.0143L14.7594 39.1505C10.709 39.7066 7.17199 39.3063 4.5941 37.4103C1.93928 35.4576 0.809766 32.3069 0.744273 28.5548C0.61113 20.927 4.82486 13.7522 12.6154 7.03497L15.3417 10.1969ZM13.6058 20.3422C13.6058 16.8114 16.4681 13.9491 19.9989 13.9491C23.5296 13.9491 26.3919 16.8114 26.3919 20.3422C26.3919 23.873 23.5296 26.7353 19.9989 26.7353C16.4681 26.7353 13.6058 23.873 13.6058 20.3422ZM19.9989 18.1241C18.7739 18.1241 17.7808 19.1172 17.7808 20.3422C17.7808 21.5672 18.7739 22.5603 19.9989 22.5603C21.2239 22.5603 22.2169 21.5672 22.2169 20.3422C22.2169 19.1172 21.2239 18.1241 19.9989 18.1241ZM9.85948 24.136C15.9019 31.6596 21.8793 35.088 27.7696 35.1908C30.7765 35.2433 32.4619 34.4315 33.4063 33.2372C34.4098 31.968 34.9894 29.761 34.6216 26.1516L38.7751 25.7284C39.1895 29.7957 38.666 33.3166 36.6812 35.8267C34.6371 38.4118 31.4488 39.4307 27.6967 39.3652C20.0689 39.232 13.0455 34.7705 6.60432 26.7503L9.85948 24.136Z" fill="url(#paint0_radial)"/>
<path fill-rule="evenodd" clip-rule="evenodd" d="M12.3145 13.3299C14.0979 13.3299 15.5437 11.8842 15.5437 10.1008C15.5437 8.31735 14.0979 6.8716 12.3145 6.8716C10.5311 6.8716 9.08533 8.31735 9.08533 10.1008C9.08533 11.8842 10.5311 13.3299 12.3145 13.3299Z" fill="url(#paint1_radial)"/>
<path fill-rule="evenodd" clip-rule="evenodd" d="M10.0489 30.1028C11.8323 30.1028 13.2781 28.657 13.2781 26.8736C13.2781 25.0902 11.8323 23.6444 10.0489 23.6444C8.26551 23.6444 6.81976 25.0902 6.81976 26.8736C6.81976 28.657 8.26551 30.1028 10.0489 30.1028Z" fill="url(#paint2_radial)"/>
<path fill-rule="evenodd" clip-rule="evenodd" d="M26.7012 33.3806C28.4846 33.3806 29.9303 31.9349 29.9303 30.1515C29.9303 28.3681 28.4846 26.9223 26.7012 26.9223C24.9177 26.9223 23.472 28.3681 23.472 30.1515C23.472 31.9349 24.9177 33.3806 26.7012 33.3806Z" fill="url(#paint3_radial)"/>
<path fill-rule="evenodd" clip-rule="evenodd" d="M30.0583 16.3076C31.8417 16.3076 33.2875 14.8618 33.2875 13.0784C33.2875 11.295 31.8417 9.84925 30.0583 9.84925C28.2749 9.84925 26.8292 11.295 26.8292 13.0784C26.8292 14.8618 28.2749 16.3076 30.0583 16.3076Z" fill="url(#paint4_radial)"/>
<defs>
<radialGradient id="paint0_radial" cx="0" cy="0" r="1" gradientUnits="userSpaceOnUse" gradientTransform="translate(37.5633 20.2781) rotate(-168.963) scale(37.6751 100.365)">
<stop stop-color="#01E1FF"/>
<stop offset="0.0001" stop-color="#D5D9FF"/>
<stop offset="0.239583" stop-color="#37D2FB"/>
<stop offset="0.662283" stop-color="#95B8F3"/>
<stop offset="0.911458" stop-color="#D0E8FC" stop-opacity="0.940974"/>
<stop offset="1" stop-color="#E6F9FF" stop-opacity="0.92"/>
</radialGradient>
<radialGradient id="paint1_radial" cx="0" cy="0" r="1" gradientUnits="userSpaceOnUse" gradientTransform="translate(37.5633 20.2781) rotate(-168.963) scale(37.6751 100.365)">
<stop stop-color="#01E1FF"/>
<stop offset="0.0001" stop-color="#D5D9FF"/>
<stop offset="0.239583" stop-color="#37D2FB"/>
<stop offset="0.662283" stop-color="#95B8F3"/>
<stop offset="0.911458" stop-color="#D0E8FC" stop-opacity="0.940974"/>
<stop offset="1" stop-color="#E6F9FF" stop-opacity="0.92"/>
</radialGradient>
<radialGradient id="paint2_radial" cx="0" cy="0" r="1" gradientUnits="userSpaceOnUse" gradientTransform="translate(37.5633 20.2781) rotate(-168.963) scale(37.6751 100.365)">
<stop stop-color="#01E1FF"/>
<stop offset="0.0001" stop-color="#D5D9FF"/>
<stop offset="0.239583" stop-color="#37D2FB"/>
<stop offset="0.662283" stop-color="#95B8F3"/>
<stop offset="0.911458" stop-color="#D0E8FC" stop-opacity="0.940974"/>
<stop offset="1" stop-color="#E6F9FF" stop-opacity="0.92"/>
</radialGradient>
<radialGradient id="paint3_radial" cx="0" cy="0" r="1" gradientUnits="userSpaceOnUse" gradientTransform="translate(37.5633 20.2781) rotate(-168.963) scale(37.6751 100.365)">
<stop stop-color="#01E1FF"/>
<stop offset="0.0001" stop-color="#D5D9FF"/>
<stop offset="0.239583" stop-color="#37D2FB"/>
<stop offset="0.662283" stop-color="#95B8F3"/>
<stop offset="0.911458" stop-color="#D0E8FC" stop-opacity="0.940974"/>
<stop offset="1" stop-color="#E6F9FF" stop-opacity="0.92"/>
</radialGradient>
<radialGradient id="paint4_radial" cx="0" cy="0" r="1" gradientUnits="userSpaceOnUse" gradientTransform="translate(37.5633 20.2781) rotate(-168.963) scale(37.6751 100.365)">
<stop stop-color="#01E1FF"/>
<stop offset="0.0001" stop-color="#D5D9FF"/>
<stop offset="0.239583" stop-color="#37D2FB"/>
<stop offset="0.662283" stop-color="#95B8F3"/>
<stop offset="0.911458" stop-color="#D0E8FC" stop-opacity="0.940974"/>
<stop offset="1" stop-color="#E6F9FF" stop-opacity="0.92"/>
</radialGradient>
</defs>
</svg>
