<svg width="40" height="40" viewBox="0 0 40 40" fill="none" xmlns="http://www.w3.org/2000/svg">
<path fill-rule="evenodd" clip-rule="evenodd" d="M11.2207 13.1994C11.2207 8.66885 14.8935 4.99609 19.424 4.99609C23.9546 4.99609 27.6274 8.66885 27.6274 13.1994C27.6274 17.73 23.9546 21.4028 19.424 21.4028C14.8935 21.4028 11.2207 17.73 11.2207 13.1994ZM19.424 8.33609C16.7381 8.33609 14.5607 10.5135 14.5607 13.1994C14.5607 15.8854 16.7381 18.0628 19.424 18.0628C22.11 18.0628 24.2874 15.8854 24.2874 13.1994C24.2874 10.5135 22.11 8.33609 19.424 8.33609Z" fill="white"/>
<path d="M21.6054 22.5859L19.4247 24.4446V25.8847H11.4111L9.78335 27.8936V30.4872H19.4247V31.9734L21.6054 33.7859H6.66602V26.6732L9.98253 22.5859H21.6054Z" fill="white"/>
<path fill-rule="evenodd" clip-rule="evenodd" d="M28.0691 20.5078L34.4058 24.3098V31.8009L28.0691 35.6029L21.7324 31.8009V24.3098L28.0691 20.5078ZM25.0724 26.2009V29.9098L28.0691 31.7078L31.0658 29.9098V26.2009L28.0691 24.4029L25.0724 26.2009Z" fill="white"/>
</svg>
