<svg width="75" height="77" viewBox="0 0 75 77" fill="none" xmlns="http://www.w3.org/2000/svg">
<g filter="url(#filter0_i)">
<circle cx="32" cy="32" r="32" fill="black"/>
</g>
<g opacity="0.3" filter="url(#filter1_f)">
<path d="M53.9113 30.3359C54.8594 33.599 54.9815 37.0428 54.2669 40.3636C53.5524 43.6844 52.023 46.7802 49.8138 49.3781C47.6046 51.976 44.7833 53.9961 41.5987 55.2604C38.4141 56.5247 34.964 56.9943 31.5527 56.6278L32.5188 47.8246C34.4705 48.0343 36.4443 47.7656 38.2663 47.0423C40.0882 46.319 41.7024 45.1632 42.9663 43.6769C44.2303 42.1906 45.1052 40.4194 45.514 38.5195C45.9229 36.6197 45.853 34.6494 45.3106 32.7826L53.9113 30.3359Z" fill="url(#paint0_angular)"/>
</g>
<g style="mix-blend-mode:lighten">
<path fill-rule="evenodd" clip-rule="evenodd" d="M43.1777 43.907L47.9994 41.2422V22.9123L31.3625 13.7461L28.9504 15.0542V28.5805H33.7721V20.379L43.1777 25.6088V43.907ZM20.2787 20.0963L15.457 22.7612V41.0911L32.094 50.2573L34.5061 48.9492V35.4228H29.6844V43.6244L20.2787 38.397V20.0963Z" fill="url(#paint1_linear)"/>
</g>
<defs>
<filter id="filter0_i" x="0" y="0" width="72" height="68" filterUnits="userSpaceOnUse" color-interpolation-filters="sRGB">
<feFlood flood-opacity="0" result="BackgroundImageFix"/>
<feBlend mode="normal" in="SourceGraphic" in2="BackgroundImageFix" result="shape"/>
<feColorMatrix in="SourceAlpha" type="matrix" values="0 0 0 0 0 0 0 0 0 0 0 0 0 0 0 0 0 0 127 0" result="hardAlpha"/>
<feOffset dx="8" dy="4"/>
<feGaussianBlur stdDeviation="10"/>
<feComposite in2="hardAlpha" operator="arithmetic" k2="-1" k3="1"/>
<feColorMatrix type="matrix" values="0 0 0 0 0.525958 0 0 0 0 0.501042 0 0 0 0 0.8125 0 0 0 1 0"/>
<feBlend mode="normal" in2="shape" result="effect1_innerShadow"/>
</filter>
<filter id="filter1_f" x="11.5527" y="10.3359" width="63.1727" height="66.4128" filterUnits="userSpaceOnUse" color-interpolation-filters="sRGB">
<feFlood flood-opacity="0" result="BackgroundImageFix"/>
<feBlend mode="normal" in="SourceGraphic" in2="BackgroundImageFix" result="shape"/>
<feGaussianBlur stdDeviation="10" result="effect1_foregroundBlur"/>
</filter>
<radialGradient id="paint0_angular" cx="0" cy="0" r="1" gradientUnits="userSpaceOnUse" gradientTransform="translate(35.5903 38.9155) rotate(109.892) scale(18.9642 19.4643)">
<stop offset="0.0324594" stop-color="#E66F66" stop-opacity="0"/>
<stop offset="0.130208" stop-color="#F0BC56"/>
<stop offset="0.447917" stop-color="#F5F7FF"/>
<stop offset="0.59169" stop-color="#F5F7FF" stop-opacity="0.27"/>
<stop offset="0.848958" stop-color="#F5F7FF"/>
<stop offset="1" stop-color="#E3556B" stop-opacity="0.46"/>
</radialGradient>
<linearGradient id="paint1_linear" x1="15.0964" y1="16.5689" x2="42.7678" y2="45.3049" gradientUnits="userSpaceOnUse">
<stop stop-color="#6D63B3"/>
<stop offset="1" stop-color="#9E97D1" stop-opacity="0.46"/>
</linearGradient>
</defs>
</svg>
