<svg width="30" height="30" viewBox="0 0 30 30" fill="none" xmlns="http://www.w3.org/2000/svg">
<path fill-rule="evenodd" clip-rule="evenodd" d="M5.91992 0.328125H24.0883V13.6681H5.91992V0.328125ZM9.25992 3.66812V10.3281H20.7483V3.66812H9.25992Z" fill="white"/>
<path fill-rule="evenodd" clip-rule="evenodd" d="M0.330078 19.3281H10.6701V29.6681H0.330078V19.3281ZM3.67008 22.6681V26.3281H7.33008V22.6681H3.67008Z" fill="white"/>
<path fill-rule="evenodd" clip-rule="evenodd" d="M19.3301 19.3281H29.6701V29.6681H19.3301V19.3281ZM22.6701 22.6681V26.3281H26.3301V22.6681H22.6701Z" fill="white"/>
<path fill-rule="evenodd" clip-rule="evenodd" d="M16.6701 12.3281L16.6743 26.1681L13.3343 26.1692L13.3301 12.3291L16.6701 12.3281Z" fill="white"/>
<path fill-rule="evenodd" clip-rule="evenodd" d="M10.3301 22.8281H19.6701V26.1681H10.3301V22.8281Z" fill="white"/>
<path fill-rule="evenodd" clip-rule="evenodd" d="M11.3086 5.32812H18.7067V8.66813H11.3086V5.32812Z" fill="white"/>
</svg>
