<svg width="48" height="48" viewBox="0 0 48 48" fill="none" xmlns="http://www.w3.org/2000/svg">
<g clip-path="url(#clip0)">
<path fill-rule="evenodd" clip-rule="evenodd" d="M25.2637 8.83984V39.1556H22.7374V8.83984H25.2637Z" fill="white"/>
<path fill-rule="evenodd" clip-rule="evenodd" d="M8.8418 22.7344L39.1576 22.7344L39.1576 25.2607L8.8418 25.2607L8.8418 22.7344Z" fill="white"/>
<circle cx="23.998" cy="40.0806" r="2.02632" transform="rotate(45 23.998 40.0806)" fill="white" stroke="white"/>
<path d="M29.3591 29.3596C26.3994 32.3194 21.6006 32.3194 18.6409 29.3596C15.6811 26.3999 15.6811 21.6011 18.6409 18.6414C21.6006 15.6816 26.3994 15.6816 29.3591 18.6414C32.3189 21.6011 32.3189 26.3999 29.3591 29.3596Z" fill="#BFBFBF"/>
<path fill-rule="evenodd" clip-rule="evenodd" d="M28.4659 28.4664C30.9324 26 30.9324 22.001 28.4659 19.5346C25.9995 17.0681 22.0005 17.0681 19.5341 19.5346C17.0676 22.001 17.0676 26 19.5341 28.4664C22.0005 30.9329 25.9995 30.9329 28.4659 28.4664ZM18.6409 29.3596C21.6006 32.3194 26.3994 32.3194 29.3591 29.3596C32.3189 26.3999 32.3189 21.6011 29.3591 18.6414C26.3994 15.6816 21.6006 15.6816 18.6409 18.6414C15.6811 21.6011 15.6811 26.3999 18.6409 29.3596Z" fill="white"/>
<ellipse cx="23.998" cy="7.92431" rx="2.52632" ry="2.52632" transform="rotate(45 23.998 7.92431)" fill="white"/>
<circle cx="7.92188" cy="23.9985" r="2.52632" transform="rotate(45 7.92188 23.9985)" fill="white"/>
<path d="M44.5002 26.2091L40.0775 28.7625L35.6548 26.2091L35.6548 21.1022L40.0775 18.5488L44.5002 21.1022L44.5002 26.2091Z" fill="#6655D5" stroke="white"/>
</g>
<defs>
<clipPath id="clip0">
<rect width="48" height="48" fill="white"/>
</clipPath>
</defs>
</svg>
