<svg width="45" height="47" viewBox="0 0 45 47" fill="none" xmlns="http://www.w3.org/2000/svg">
<g filter="url(#filter0_i)">
<ellipse cx="22" cy="24.4375" rx="22" ry="21.5625" fill="url(#paint0_radial)" fill-opacity="0.1"/>
</g>
<path d="M43.5 24.4375C43.5 36.0606 33.8836 45.5 22 45.5C10.1164 45.5 0.5 36.0606 0.5 24.4375C0.5 12.8144 10.1164 3.375 22 3.375C33.8836 3.375 43.5 12.8144 43.5 24.4375Z" stroke="url(#paint1_linear)"/>
<g opacity="0.5">
<g opacity="0.3" filter="url(#filter1_f)">
<path d="M39.1745 19.6213C39.9902 22.3792 40.0953 25.2898 39.4805 28.0965C38.8657 30.9031 37.5499 33.5197 35.6491 35.7153C33.7483 37.911 31.3208 39.6184 28.5809 40.687C25.8409 41.7555 22.8725 42.1524 19.9375 41.8426L10.3125 35.7153C11.9917 35.8926 24.1462 34.3526 25.7137 33.7412C27.2813 33.1299 28.6701 32.153 29.7576 30.8969C30.8451 29.6407 31.5979 28.1437 31.9496 26.5379C32.3014 24.9322 32.7792 17.1403 32.3125 15.5625L39.1745 19.6213Z" fill="url(#paint2_angular)"/>
</g>
<path d="M29.7782 16.6992C30.7996 17.7043 31.6099 18.8975 32.1627 20.2106C32.7155 21.5238 33 22.9312 33 24.3526C33 25.774 32.7155 27.1814 32.1627 28.4946C31.6099 29.8078 30.7996 31.0009 29.7782 32.006L22 24.3526L29.7782 16.6992Z" stroke="white"/>
<path d="M29.779 32.0078C27.7161 34.0376 24.9182 35.1779 22.0008 35.1779C19.0834 35.1779 16.2856 34.0376 14.2227 32.0078" stroke="white"/>
<path d="M14.2218 32.006C12.1589 29.9762 11 27.2232 11 24.3526C11 21.482 12.1589 18.729 14.2218 16.6992L22 24.3526L14.2218 32.006Z" stroke="white"/>
<path d="M29.779 16.7014C28.7576 15.6963 27.5449 14.8991 26.2103 14.3551C24.8758 13.8112 23.4454 13.5312 22.0008 13.5313C20.5563 13.5313 19.1259 13.8112 17.7913 14.3551C16.4567 14.8991 15.2441 15.6963 14.2227 16.7014" stroke="white"/>
</g>
<path opacity="0.4" d="M15.1372 24.2268L15.6445 23.2031L16.1518 24.2268L15.6445 25.2504L15.1372 24.2268Z" fill="white" stroke="white"/>
<rect opacity="0.3" x="0.714172" y="-5.96046e-08" width="1.39657" height="1.39657" transform="matrix(0.714172 -0.699971 0.714172 0.699971 20.794 31.2538)" fill="white" stroke="white"/>
<path opacity="0.3" d="M27.9744 25.1055L28.4756 24.2547L28.9768 25.1055H27.9744Z" fill="white" stroke="white"/>
<rect opacity="0.3" x="21.0332" y="17.3008" width="2.17778" height="2.11458" rx="1.05729" fill="white" stroke="white"/>
<ellipse cx="22" cy="3.38166" rx="2.75" ry="2.70588" fill="white"/>
<ellipse cx="5.5" cy="39.2371" rx="2.75" ry="2.70588" fill="white"/>
<ellipse cx="37.8125" cy="39.2371" rx="2.75" ry="2.70588" fill="white"/>
<defs>
<filter id="filter0_i" x="0" y="2.875" width="50" height="46.125" filterUnits="userSpaceOnUse" color-interpolation-filters="sRGB">
<feFlood flood-opacity="0" result="BackgroundImageFix"/>
<feBlend mode="normal" in="SourceGraphic" in2="BackgroundImageFix" result="shape"/>
<feColorMatrix in="SourceAlpha" type="matrix" values="0 0 0 0 0 0 0 0 0 0 0 0 0 0 0 0 0 0 127 0" result="hardAlpha"/>
<feOffset dx="6" dy="3"/>
<feGaussianBlur stdDeviation="10"/>
<feComposite in2="hardAlpha" operator="arithmetic" k2="-1" k3="1"/>
<feColorMatrix type="matrix" values="0 0 0 0 0.288687 0 0 0 0 0.603575 0 0 0 0 0.966623 0 0 0 1 0"/>
<feBlend mode="normal" in2="shape" result="effect1_innerShadow"/>
</filter>
<filter id="filter1_f" x="5.3125" y="10.5625" width="39.5625" height="36.3823" filterUnits="userSpaceOnUse" color-interpolation-filters="sRGB">
<feFlood flood-opacity="0" result="BackgroundImageFix"/>
<feBlend mode="normal" in="SourceGraphic" in2="BackgroundImageFix" result="shape"/>
<feGaussianBlur stdDeviation="2.5" result="effect1_foregroundBlur"/>
</filter>
<radialGradient id="paint0_radial" cx="0" cy="0" r="1" gradientUnits="userSpaceOnUse" gradientTransform="translate(6.6 15.2734) rotate(32.1548) scale(39.3037 38.9712)">
<stop stop-color="#B1E3FF"/>
<stop offset="0.504527" stop-color="#3E97FF" stop-opacity="0.542926"/>
<stop offset="1" stop-color="#B1E3FF" stop-opacity="0"/>
</radialGradient>
<linearGradient id="paint1_linear" x1="46.5667" y1="22.2812" x2="41.964" y2="34.3827" gradientUnits="userSpaceOnUse">
<stop stop-color="white" stop-opacity="0.46"/>
<stop offset="1" stop-color="white" stop-opacity="0"/>
</linearGradient>
<radialGradient id="paint2_angular" cx="0" cy="0" r="1" gradientUnits="userSpaceOnUse" gradientTransform="translate(23.4114 26.8726) rotate(110.221) scale(16.0618 16.7117)">
<stop offset="0.0324594" stop-color="#E66F66" stop-opacity="0"/>
<stop offset="0.130208" stop-color="#F0BC56"/>
<stop offset="0.447917" stop-color="#F5F7FF"/>
<stop offset="0.59169" stop-color="#F5F7FF" stop-opacity="0.27"/>
<stop offset="0.848958" stop-color="#F5F7FF"/>
<stop offset="1" stop-color="#E3556B" stop-opacity="0.46"/>
</radialGradient>
</defs>
</svg>
