<svg width="1416" height="1850" viewBox="0 0 1416 1850" fill="none" xmlns="http://www.w3.org/2000/svg">
<mask id="mask0" mask-type="alpha" maskUnits="userSpaceOnUse" x="338" y="631" width="1888" height="791">
<rect width="1841.81" height="792.332" transform="matrix(1 -3.91856e-08 0.0579578 -0.998319 338 1422)" fill="url(#paint0_linear)"/>
</mask>
<g mask="url(#mask0)">
<path opacity="0.49" d="M1969.99 1386.08L1852.25 1252.52C1675.48 1052 1761.89 727.268 2020.06 621.862L2130.38 576.826" stroke="#3A41E6" stroke-opacity="0.4" stroke-width="2" stroke-miterlimit="10"/>
<path opacity="0.95" d="M999.417 1585.65L647.391 1186.36C470.608 985.837 557.014 661.098 815.198 555.692L1237.68 383.211" stroke="#3A41E6" stroke-opacity="0.4" stroke-width="2" stroke-miterlimit="10"/>
<path opacity="0.97" d="M942.422 1597.35L576.639 1182.42C399.864 981.897 486.276 657.165 744.457 551.762L1185.32 371.78" stroke="#3A41E6" stroke-opacity="0.4" stroke-width="2" stroke-miterlimit="10"/>
<path d="M885.47 1609.02L505.907 1178.46C329.13 977.938 415.543 653.202 673.728 547.801L1132.96 360.326" stroke="#3A41E6" stroke-opacity="0.4" stroke-width="2" stroke-miterlimit="10"/>
</g>
<g filter="url(#filter0_f)">
<ellipse rx="351" ry="325" transform="matrix(1 0 0 -1 850.352 925)" fill="url(#paint1_radial)"/>
</g>
<g filter="url(#filter1_i)">
<circle r="521.5" transform="matrix(-1 0 0 1 1134.85 930.5)" fill="black"/>
</g>
<defs>
<filter id="filter0_f" x="-100.648" y="0" width="1902" height="1850" filterUnits="userSpaceOnUse" color-interpolation-filters="sRGB">
<feFlood flood-opacity="0" result="BackgroundImageFix"/>
<feBlend mode="normal" in="SourceGraphic" in2="BackgroundImageFix" result="shape"/>
<feGaussianBlur stdDeviation="300" result="effect1_foregroundBlur"/>
</filter>
<filter id="filter1_i" x="613.352" y="407" width="1046" height="1045" filterUnits="userSpaceOnUse" color-interpolation-filters="sRGB">
<feFlood flood-opacity="0" result="BackgroundImageFix"/>
<feBlend mode="normal" in="SourceGraphic" in2="BackgroundImageFix" result="shape"/>
<feColorMatrix in="SourceAlpha" type="matrix" values="0 0 0 0 0 0 0 0 0 0 0 0 0 0 0 0 0 0 127 0" result="hardAlpha"/>
<feOffset dx="3" dy="-2"/>
<feGaussianBlur stdDeviation="4"/>
<feComposite in2="hardAlpha" operator="arithmetic" k2="-1" k3="1"/>
<feColorMatrix type="matrix" values="0 0 0 0 0.154653 0 0 0 0 0.311125 0 0 0 0 0.545833 0 0 0 1 0"/>
<feBlend mode="normal" in2="shape" result="effect1_innerShadow"/>
</filter>
<linearGradient id="paint0_linear" x1="781.482" y1="792.332" x2="720.299" y2="90.7041" gradientUnits="userSpaceOnUse">
<stop stop-color="#4D4AD9" stop-opacity="0"/>
<stop offset="0.442708" stop-color="#0E0AA8" stop-opacity="0.69"/>
<stop offset="1" stop-color="#35347D" stop-opacity="0"/>
</linearGradient>
<radialGradient id="paint1_radial" cx="0" cy="0" r="1" gradientUnits="userSpaceOnUse" gradientTransform="translate(351 325) rotate(90) scale(325 351)">
<stop offset="0.4375" stop-color="#0E3457"/>
<stop offset="0.947917" stop-color="#2041B4" stop-opacity="0.764045"/>
<stop offset="1" stop-color="#AEE7FF" stop-opacity="0"/>
</radialGradient>
</defs>
</svg>
