<svg width="205" height="204" viewBox="0 0 205 204" fill="none" xmlns="http://www.w3.org/2000/svg">
<g filter="url(#filter0_i)">
<circle cx="102.008" cy="102" r="102" fill="black"/>
</g>
<g opacity="0.3" filter="url(#filter1_f)">
<path d="M167.05 92.6877C170.072 103.089 170.461 114.066 168.184 124.651C165.906 135.236 161.031 145.104 153.989 153.385C146.947 161.665 137.954 168.105 127.803 172.134C117.653 176.164 106.656 177.661 95.782 176.493L97.5704 160.197C105.742 161.075 114.006 159.95 121.635 156.921C129.263 153.893 136.021 149.054 141.313 142.831C146.605 136.608 150.269 129.192 151.98 121.237C153.692 113.282 153.399 105.033 151.128 97.2169L167.05 92.6877Z" fill="url(#paint0_angular)"/>
</g>
<defs>
<filter id="filter0_i" x="0.0078125" y="0" width="206" height="206" filterUnits="userSpaceOnUse" color-interpolation-filters="sRGB">
<feFlood flood-opacity="0" result="BackgroundImageFix"/>
<feBlend mode="normal" in="SourceGraphic" in2="BackgroundImageFix" result="shape"/>
<feColorMatrix in="SourceAlpha" type="matrix" values="0 0 0 0 0 0 0 0 0 0 0 0 0 0 0 0 0 0 127 0" result="hardAlpha"/>
<feOffset dx="2" dy="2"/>
<feGaussianBlur stdDeviation="2"/>
<feComposite in2="hardAlpha" operator="arithmetic" k2="-1" k3="1"/>
<feColorMatrix type="matrix" values="0 0 0 0 0.152941 0 0 0 0 0.54902 0 0 0 0 0.996078 0 0 0 1 0"/>
<feBlend mode="normal" in2="shape" result="effect1_innerShadow"/>
</filter>
<filter id="filter1_f" x="75.7812" y="72.6875" width="113.863" height="124.191" filterUnits="userSpaceOnUse" color-interpolation-filters="sRGB">
<feFlood flood-opacity="0" result="BackgroundImageFix"/>
<feBlend mode="normal" in="SourceGraphic" in2="BackgroundImageFix" result="shape"/>
<feGaussianBlur stdDeviation="10" result="effect1_foregroundBlur"/>
</filter>
<radialGradient id="paint0_angular" cx="0" cy="0" r="1" gradientUnits="userSpaceOnUse" gradientTransform="translate(108.653 120.037) rotate(109.892) scale(60.4484 62.0424)">
<stop offset="0.130208" stop-color="#F0BC56"/>
<stop offset="0.447917" stop-color="#F5F7FF"/>
<stop offset="0.601579" stop-color="#F5F7FF" stop-opacity="0.24"/>
<stop offset="0.848958" stop-color="#F5F7FF"/>
<stop offset="1" stop-color="#E3556B" stop-opacity="0.38"/>
</radialGradient>
</defs>
</svg>
