<svg width="299" height="303" viewBox="0 0 299 303" fill="none" xmlns="http://www.w3.org/2000/svg">
<g opacity="0.7" filter="url(#filter0_f)">
<path d="M176.073 170.148C138.353 210.605 146.338 266.683 122.009 244C97.68 221.317 72.3972 152.841 110.117 112.384C147.837 71.9273 214.368 94.2764 238.697 116.959C263.026 139.643 213.793 129.692 176.073 170.148Z" fill="url(#paint0_radial)"/>
</g>
<circle cx="132.008" cy="131" r="33" fill="url(#paint1_radial)"/>
<g filter="url(#filter1_f)">
<circle cx="132.008" cy="131" r="41" fill="url(#paint2_radial)"/>
</g>
<g filter="url(#filter2_i)">
<circle cx="190.01" cy="184" r="102" fill="black"/>
</g>
<g opacity="0.3" filter="url(#filter3_f)">
<path d="M255.052 174.688C258.074 185.089 258.463 196.066 256.186 206.651C253.908 217.236 249.033 227.104 241.991 235.385C234.949 243.665 225.956 250.105 215.805 254.134C205.655 258.164 194.658 259.661 183.784 258.493L185.572 242.197C193.744 243.075 202.008 241.95 209.636 238.921C217.265 235.893 224.023 231.054 229.315 224.831C234.607 218.608 238.271 211.192 239.982 203.237C241.694 195.282 241.401 187.033 239.13 179.217L255.052 174.688Z" fill="url(#paint3_angular)"/>
</g>
<g filter="url(#filter4_f)">
<path d="M99.0098 111.5L112.982 110.536L114.51 102L116.038 110.536L130.01 111.5L116.038 112.464L114.51 120L112.982 112.464L99.0098 111.5Z" fill="url(#paint4_radial)"/>
</g>
<defs>
<filter id="filter0_f" x="0" y="0.699219" width="298.721" height="301.77" filterUnits="userSpaceOnUse" color-interpolation-filters="sRGB">
<feFlood flood-opacity="0" result="BackgroundImageFix"/>
<feBlend mode="normal" in="SourceGraphic" in2="BackgroundImageFix" result="shape"/>
<feGaussianBlur stdDeviation="25" result="effect1_foregroundBlur"/>
</filter>
<filter id="filter1_f" x="76.0078" y="75" width="112" height="112" filterUnits="userSpaceOnUse" color-interpolation-filters="sRGB">
<feFlood flood-opacity="0" result="BackgroundImageFix"/>
<feBlend mode="normal" in="SourceGraphic" in2="BackgroundImageFix" result="shape"/>
<feGaussianBlur stdDeviation="7.5" result="effect1_foregroundBlur"/>
</filter>
<filter id="filter2_i" x="88.0098" y="82" width="206" height="206" filterUnits="userSpaceOnUse" color-interpolation-filters="sRGB">
<feFlood flood-opacity="0" result="BackgroundImageFix"/>
<feBlend mode="normal" in="SourceGraphic" in2="BackgroundImageFix" result="shape"/>
<feColorMatrix in="SourceAlpha" type="matrix" values="0 0 0 0 0 0 0 0 0 0 0 0 0 0 0 0 0 0 127 0" result="hardAlpha"/>
<feOffset dx="2" dy="2"/>
<feGaussianBlur stdDeviation="2"/>
<feComposite in2="hardAlpha" operator="arithmetic" k2="-1" k3="1"/>
<feColorMatrix type="matrix" values="0 0 0 0 0.152941 0 0 0 0 0.54902 0 0 0 0 0.996078 0 0 0 1 0"/>
<feBlend mode="normal" in2="shape" result="effect1_innerShadow"/>
</filter>
<filter id="filter3_f" x="163.783" y="154.688" width="113.863" height="124.191" filterUnits="userSpaceOnUse" color-interpolation-filters="sRGB">
<feFlood flood-opacity="0" result="BackgroundImageFix"/>
<feBlend mode="normal" in="SourceGraphic" in2="BackgroundImageFix" result="shape"/>
<feGaussianBlur stdDeviation="10" result="effect1_foregroundBlur"/>
</filter>
<filter id="filter4_f" x="98.0098" y="101" width="33" height="20" filterUnits="userSpaceOnUse" color-interpolation-filters="sRGB">
<feFlood flood-opacity="0" result="BackgroundImageFix"/>
<feBlend mode="normal" in="SourceGraphic" in2="BackgroundImageFix" result="shape"/>
<feGaussianBlur stdDeviation="0.5" result="effect1_foregroundBlur"/>
</filter>
<radialGradient id="paint0_radial" cx="0" cy="0" r="1" gradientUnits="userSpaceOnUse" gradientTransform="translate(170.399 170.213) rotate(132.995) scale(100.153)">
<stop offset="0.617096" stop-color="#FFFAC9"/>
<stop offset="1" stop-color="white" stop-opacity="0"/>
</radialGradient>
<radialGradient id="paint1_radial" cx="0" cy="0" r="1" gradientUnits="userSpaceOnUse" gradientTransform="translate(132.008 131) rotate(90) scale(33)">
<stop offset="0.385417" stop-color="#FFF8BC"/>
<stop offset="1" stop-color="white" stop-opacity="0"/>
</radialGradient>
<radialGradient id="paint2_radial" cx="0" cy="0" r="1" gradientUnits="userSpaceOnUse" gradientTransform="translate(132.008 131) rotate(90) scale(41)">
<stop offset="0.385417" stop-color="#BCF7FF"/>
<stop offset="1" stop-color="white" stop-opacity="0"/>
</radialGradient>
<radialGradient id="paint3_angular" cx="0" cy="0" r="1" gradientUnits="userSpaceOnUse" gradientTransform="translate(196.655 202.037) rotate(109.892) scale(60.4484 62.0424)">
<stop offset="0.130208" stop-color="#F0BC56"/>
<stop offset="0.447917" stop-color="#F5F7FF"/>
<stop offset="0.601579" stop-color="#F5F7FF" stop-opacity="0.24"/>
<stop offset="0.848958" stop-color="#F5F7FF"/>
<stop offset="1" stop-color="#E3556B" stop-opacity="0.38"/>
</radialGradient>
<radialGradient id="paint4_radial" cx="0" cy="0" r="1" gradientUnits="userSpaceOnUse" gradientTransform="translate(114.51 111.5) rotate(90) scale(4.5 19.2003)">
<stop stop-color="#ECFDFF"/>
<stop offset="1" stop-color="#73BCFF" stop-opacity="0"/>
</radialGradient>
</defs>
</svg>
