<svg width="49" height="49" viewBox="0 0 49 49" fill="none" xmlns="http://www.w3.org/2000/svg">
<path opacity="0.2" d="M-1.67284e-06 24.5C-2.2409e-06 30.9978 2.58124 37.2295 7.17588 41.8241C11.7705 46.4188 18.0022 49 24.5 49C30.9978 49 37.2295 46.4188 41.8241 41.8241C46.4188 37.2295 49 30.9978 49 24.5L38.3977 24.5C38.3977 28.1859 36.9335 31.7209 34.3272 34.3272C31.7209 36.9335 28.1859 38.3977 24.5 38.3977C20.8141 38.3977 17.2791 36.9335 14.6728 34.3272C12.0665 31.7209 10.6023 28.1859 10.6023 24.5L-1.67284e-06 24.5Z" fill="white"/>
<circle opacity="0.2" cx="10.5" cy="11.5" r="4.5" fill="white"/>
<circle opacity="0.2" cx="37.5" cy="11.5" r="4.5" fill="white"/>
</svg>
