<svg width="64" height="64" viewBox="0 0 64 64" fill="none" xmlns="http://www.w3.org/2000/svg">
<g opacity="0.5">
<path opacity="0.2" d="M7 32.5C7 38.9978 9.58124 45.2295 14.1759 49.8241C18.7705 54.4188 25.0022 57 31.5 57C37.9978 57 44.2295 54.4188 48.8241 49.8241C53.4188 45.2295 56 38.9978 56 32.5L45.3977 32.5C45.3977 36.1859 43.9335 39.7209 41.3272 42.3272C38.7209 44.9335 35.1859 46.3977 31.5 46.3977C27.8141 46.3977 24.2791 44.9335 21.6728 42.3272C19.0665 39.7209 17.6023 36.1859 17.6023 32.5L7 32.5Z" fill="white"/>
<circle opacity="0.2" cx="17.5" cy="19.5" r="4.5" fill="white"/>
<circle opacity="0.2" cx="44.5" cy="19.5" r="4.5" fill="white"/>
</g>
</svg>
