<svg width="40" height="40" viewBox="0 0 40 40" fill="none" xmlns="http://www.w3.org/2000/svg">
<path fill-rule="evenodd" clip-rule="evenodd" d="M8.00008 5.32812H6.33008V6.99812V32.9981V34.6681H8.00008H21.2855L20.7613 34.3536L18.3337 32.897V31.3281H9.67008V8.66812H30.3301V17.2329L30.5729 17.3786L33.6701 19.2369V6.99812V5.32812H32.0001H8.00008Z" fill="white"/>
<path fill-rule="evenodd" clip-rule="evenodd" d="M12.1348 11.293H25.8748V14.633H12.1348V11.293Z" fill="white"/>
<path fill-rule="evenodd" clip-rule="evenodd" d="M12.1348 17.1875H19.8748V20.5275H12.1348V17.1875Z" fill="white"/>
<path fill-rule="evenodd" clip-rule="evenodd" d="M28.0007 19.7188L34.3374 23.5208V31.0118L28.0007 34.8138L21.6641 31.0118V23.5208L28.0007 19.7188ZM25.0041 25.4118V29.1208L28.0007 30.9188L30.9974 29.1208V25.4118L28.0007 23.6138L25.0041 25.4118Z" fill="white"/>
</svg>
