<svg width="608" height="328" viewBox="0 0 608 328" fill="none" xmlns="http://www.w3.org/2000/svg">
<rect width="608" height="328" fill="#164C86" fill-opacity="0.1"/>
<path d="M75.6764 118.277C76.0061 118.104 76.4001 118.104 76.7299 118.277L100.801 130.931C101.173 131.127 101.406 131.513 101.406 131.933V159.766C101.406 160.186 101.174 160.572 100.802 160.768L76.731 173.457C76.4006 173.631 76.0056 173.631 75.6753 173.457L51.6041 160.768C51.2325 160.572 51 160.186 51 159.766V131.933C51 131.513 51.233 131.127 51.6052 130.931L75.6764 118.277Z" fill="#102944" stroke="#AEE2FF" stroke-width="2.26393" stroke-miterlimit="10"/>
<path d="M76.6024 129.816L90.3887 137.253V153.843L76.6024 161.328L62.816 153.843V137.253L76.6024 129.816Z" fill="#46BCFF"/>
<path d="M466.418 68.9269C466.691 68.6741 467.072 68.5721 467.435 68.6542L493.962 74.6475C494.372 74.7401 494.697 75.0525 494.805 75.4586L502.009 102.343C502.118 102.749 501.993 103.181 501.685 103.467L481.718 121.953C481.444 122.207 481.062 122.309 480.698 122.227L454.163 116.2C453.754 116.107 453.429 115.795 453.32 115.389L446.117 88.5047C446.008 88.0986 446.133 87.6656 446.442 87.3803L466.418 68.9269Z" fill="#102944" stroke="#AEE2FF" stroke-width="2.26393" stroke-miterlimit="10"/>
<path d="M470.8 84.0289L487.947 101.175L464.524 107.451L470.8 84.0289Z" fill="#46BCFF"/>
<path d="M481.719 178.247C481.445 177.994 481.065 177.892 480.701 177.975L454.175 183.968C453.765 184.06 453.44 184.373 453.331 184.779L446.128 211.664C446.019 212.069 446.144 212.502 446.452 212.787L466.419 231.274C466.693 231.527 467.074 231.63 467.438 231.547L493.974 225.521C494.383 225.427 494.708 225.115 494.816 224.71L502.02 197.825C502.129 197.419 502.004 196.986 501.695 196.701L481.719 178.247Z" fill="#102944" stroke="#AEE2FF" stroke-width="2.26393" stroke-miterlimit="10"/>
<path d="M477.336 193.349L460.19 210.496L483.612 216.772L477.336 193.349Z" fill="#46BCFF"/>
<path d="M273.984 113.525C274.62 113.195 275.38 113.195 276.016 113.525L305.833 129.031C306.55 129.404 307 130.14 307 130.943L307 165.008C307 165.809 306.551 166.545 305.835 166.919L276.018 182.466C275.381 182.798 274.619 182.798 273.982 182.466L244.166 166.919C243.449 166.545 243.001 165.809 243.001 165.008L243.001 130.943C243.001 130.14 243.45 129.404 244.168 129.031L273.984 113.525Z" fill="#102944"/>
<path d="M273.984 113.529C274.62 113.199 275.38 113.199 276.016 113.529L305.833 129.035C306.55 129.408 307 130.144 307 130.946L307 165.012C307 165.813 306.551 166.549 305.835 166.923L276.018 182.47C275.381 182.802 274.619 182.802 273.982 182.47L244.166 166.923C243.449 166.549 243.001 165.813 243.001 165.012L243.001 130.946C243.001 130.144 243.45 129.408 244.168 129.035L273.984 113.529Z" stroke="#AEE2FF" stroke-width="3" stroke-miterlimit="10"/>
<path d="M274.038 132.043L287.752 139.097L287.752 154.834L274.038 161.933L260.324 154.834L260.324 139.097L274.038 132.043Z" fill="#46BCFF"/>
<path fill-rule="evenodd" clip-rule="evenodd" d="M308.205 131.35L306.447 128.531L274.999 144.548L243.551 128.531L241.793 131.35L274.999 148.665L308.205 131.35Z" fill="#AEE2FF"/>
<path fill-rule="evenodd" clip-rule="evenodd" d="M276.654 182.999L276.654 146.332L273.344 146.332L273.344 182.999L276.654 182.999Z" fill="#AEE2FF"/>
<path d="M216.354 139.354C216.549 139.158 216.549 138.842 216.354 138.646L213.172 135.464C212.976 135.269 212.66 135.269 212.464 135.464C212.269 135.66 212.269 135.976 212.464 136.172L215.293 139L212.464 141.828C212.269 142.024 212.269 142.34 212.464 142.536C212.66 142.731 212.976 142.731 213.172 142.536L216.354 139.354ZM111.5 139.5H216V138.5H111.5V139.5Z" fill="#929292"/>
<path d="M434.372 99.3323C434.51 99.0932 434.428 98.7874 434.189 98.6493L430.292 96.3993C430.053 96.2612 429.747 96.3432 429.609 96.5823C429.471 96.8215 429.553 97.1273 429.792 97.2653L433.256 99.2653L431.256 102.729C431.118 102.969 431.2 103.274 431.439 103.412C431.678 103.551 431.984 103.469 432.122 103.229L434.372 99.3323ZM333.129 126.612L434.069 99.5653L433.81 98.5994L332.871 125.646L333.129 126.612Z" fill="#929292"/>
<path d="M434.372 200.871C434.51 201.11 434.428 201.416 434.189 201.554L430.292 203.804C430.053 203.942 429.747 203.86 429.609 203.621C429.471 203.382 429.553 203.076 429.792 202.938L433.256 200.938L431.256 197.474C431.118 197.235 431.2 196.929 431.439 196.791C431.678 196.653 431.984 196.735 432.122 196.974L434.372 200.871ZM333.129 173.591L434.069 200.638L433.81 201.604L332.871 174.557L333.129 173.591Z" fill="#929292"/>
<path d="M111.646 151.646C111.451 151.842 111.451 152.158 111.646 152.354L114.828 155.536C115.024 155.731 115.34 155.731 115.536 155.536C115.731 155.34 115.731 155.024 115.536 154.828L112.707 152L115.536 149.172C115.731 148.976 115.731 148.66 115.536 148.464C115.34 148.269 115.024 148.269 114.828 148.464L111.646 151.646ZM216.854 152.354C217.049 152.158 217.049 151.842 216.854 151.646L213.672 148.464C213.476 148.269 213.16 148.269 212.964 148.464C212.769 148.66 212.769 148.976 212.964 149.172L215.793 152L212.964 154.828C212.769 155.024 212.769 155.34 212.964 155.536C213.16 155.731 213.476 155.731 213.672 155.536L216.854 152.354ZM112 152.5H216.5V151.5H112V152.5Z" fill="#46BCFF"/>
<path d="M335.801 137.953C335.663 138.192 335.745 138.498 335.984 138.636L339.881 140.886C340.121 141.024 340.426 140.942 340.565 140.703C340.703 140.464 340.621 140.158 340.381 140.02L336.917 138.02L338.917 134.556C339.055 134.317 338.974 134.011 338.734 133.873C338.495 133.735 338.189 133.817 338.051 134.056L335.801 137.953ZM437.607 111.407C437.745 111.167 437.663 110.862 437.424 110.724L433.527 108.474C433.287 108.335 432.982 108.417 432.843 108.657C432.705 108.896 432.787 109.201 433.027 109.34L436.491 111.34L434.491 114.804C434.353 115.043 434.434 115.349 434.674 115.487C434.913 115.625 435.219 115.543 435.357 115.304L437.607 111.407ZM336.364 138.686L437.303 111.639L437.044 110.674L336.105 137.72L336.364 138.686Z" fill="#46BCFF"/>
<path d="M335.801 162.25C335.663 162.011 335.745 161.705 335.984 161.567L339.881 159.317C340.121 159.179 340.426 159.261 340.565 159.5C340.703 159.739 340.621 160.045 340.381 160.183L336.917 162.183L338.917 165.647C339.055 165.886 338.974 166.192 338.734 166.33C338.495 166.468 338.189 166.386 338.051 166.147L335.801 162.25ZM437.607 188.797C437.745 189.036 437.663 189.342 437.424 189.48L433.527 191.73C433.287 191.868 432.982 191.786 432.843 191.547C432.705 191.307 432.787 191.002 433.027 190.864L436.491 188.864L434.491 185.399C434.353 185.16 434.434 184.855 434.674 184.716C434.913 184.578 435.219 184.66 435.357 184.899L437.607 188.797ZM336.364 161.517L437.303 188.564L437.044 189.53L336.105 162.483L336.364 161.517Z" fill="#46BCFF"/>
<path d="M389.614 92.1076C391.814 100.318 391.814 100.318 372.496 105.494C353.177 110.671 353.177 110.671 350.977 102.46C348.777 94.25 348.777 94.25 368.096 89.0736C387.414 83.8972 387.414 83.8972 389.614 92.1076Z" fill="#164C86" fill-opacity="0.6"/>
<path d="M362.176 94.3623C361.917 94.8789 361.584 95.3658 361.15 95.8466C360.707 96.2965 360.239 96.6536 359.782 96.9253L360.122 98.1925C361.074 97.606 361.807 96.8795 362.312 95.9823L364.855 105.472L366.122 105.132L363.165 94.0972L362.176 94.3623ZM367.341 99.952L367.623 101.003L375.427 98.9117L375.146 97.8608L367.341 99.952ZM377.737 90.1928C377.478 90.7095 377.144 91.1964 376.71 91.6772C376.267 92.1271 375.8 92.4842 375.343 92.7558L375.682 94.0231C376.635 93.4366 377.368 92.7101 377.873 91.8129L380.415 101.302L381.683 100.963L378.726 89.9278L377.737 90.1928Z" fill="white"/>
<path d="M170 125.734C170 134.234 170 134.234 160.5 134.234C151 134.234 151 134.234 151 125.734C151 117.234 151 117.234 160.5 117.234C170 117.234 170 117.234 170 125.734Z" fill="#164C86" fill-opacity="0.6"/>
<path d="M161.395 120.576C161.011 121.008 160.563 121.392 160.019 121.744C159.475 122.064 158.931 122.288 158.419 122.432V123.744C159.491 123.424 160.387 122.912 161.107 122.176V132H162.419V120.576H161.395Z" fill="white"/>
<path d="M389.871 204.462C387.671 212.672 387.671 212.672 368.352 207.496C349.034 202.319 349.034 202.319 351.234 194.109C353.434 185.898 353.434 185.898 372.752 191.075C392.071 196.251 392.071 196.251 389.871 204.462Z" fill="#164C86" fill-opacity="0.6"/>
<path d="M362.969 192.155C362.486 192.473 361.954 192.728 361.337 192.927C360.729 193.096 360.146 193.171 359.614 193.178L359.274 194.445C360.392 194.413 361.39 194.151 362.276 193.626L359.734 203.115L361.001 203.455L363.958 192.42L362.969 192.155ZM364.646 199.578L364.365 200.629L372.17 202.721L372.451 201.67L364.646 199.578ZM379.823 196.44C378.711 196.141 377.7 196.268 376.821 196.828C375.946 197.372 375.326 198.266 374.994 199.502L376.262 199.842C376.538 198.872 376.969 198.192 377.534 197.814C378.076 197.396 378.73 197.306 379.487 197.509C380.198 197.7 380.72 198.038 381.023 198.517C381.325 198.995 381.389 199.559 381.207 200.239C381.017 200.95 380.545 201.536 379.827 201.99C379.451 202.22 378.759 202.515 377.728 202.901C376.338 203.39 375.371 203.844 374.806 204.222C373.845 204.843 373.245 205.659 372.976 206.664L380.332 208.635L380.635 207.507L374.839 205.954C375.239 205.266 376.27 204.631 377.929 204.065C379.28 203.599 380.199 203.199 380.693 202.901C381.611 202.319 382.214 201.552 382.47 200.594C382.727 199.636 382.598 198.757 382.107 197.996C381.599 197.23 380.843 196.713 379.823 196.44Z" fill="white"/>
<rect width="161" height="32" transform="translate(20 208)" fill="#164C86" fill-opacity="0.2"/>
<path d="M95 223.5C95 232 95 232 75 232C55 232 55 232 55 223.5C55 215 55 215 75 215C95 215 95 215 95 223.5Z" fill="#164C86" fill-opacity="0.6"/>
<path d="M67.9144 218.576C67.5304 219.008 67.0824 219.392 66.5384 219.744C65.9944 220.064 65.4504 220.288 64.9384 220.432V221.744C66.0104 221.424 66.9064 220.912 67.6264 220.176V230H68.9384V218.576H67.9144ZM71.4563 225.312V226.4H79.5363V225.312H71.4563ZM84.0238 218.576C83.6398 219.008 83.1918 219.392 82.6478 219.744C82.1038 220.064 81.5598 220.288 81.0478 220.432V221.744C82.1198 221.424 83.0158 220.912 83.7358 220.176V230H85.0477V218.576H84.0238Z" fill="white"/>
<path d="M47 223.734C47 232.234 47 232.234 37.5 232.234C28 232.234 28 232.234 28 223.734C28 215.234 28 215.234 37.5 215.234C47 215.234 47 215.234 47 223.734Z" fill="#164C86" fill-opacity="0.6"/>
<path d="M38.3948 218.576C38.0108 219.008 37.5628 219.392 37.0188 219.744C36.4748 220.064 35.9308 220.288 35.4188 220.432V221.744C36.4908 221.424 37.3868 220.912 38.1068 220.176V230H39.4188V218.576H38.3948Z" fill="white"/>
<path d="M143 223.5C143 232 143 232 123 232C103 232 103 232 103 223.5C103 215 103 215 123 215C143 215 143 215 143 223.5Z" fill="#164C86" fill-opacity="0.6"/>
<path d="M113.828 218.576C113.444 219.008 112.996 219.392 112.452 219.744C111.908 220.064 111.364 220.288 110.852 220.432V221.744C111.924 221.424 112.82 220.912 113.54 220.176V230H114.852V218.576H113.828ZM117.37 225.312V226.4H125.45V225.312H117.37ZM131.218 218.352C130.066 218.352 129.122 218.736 128.418 219.504C127.714 220.256 127.346 221.28 127.346 222.56H128.658C128.674 221.552 128.914 220.784 129.362 220.272C129.778 219.728 130.386 219.472 131.17 219.472C131.906 219.472 132.498 219.664 132.914 220.048C133.33 220.432 133.538 220.96 133.538 221.664C133.538 222.4 133.234 223.088 132.658 223.712C132.354 224.032 131.762 224.496 130.866 225.136C129.65 225.968 128.834 226.656 128.386 227.168C127.618 228.016 127.25 228.96 127.25 230H134.866V228.832H128.866C129.074 228.064 129.906 227.184 131.362 226.208C132.546 225.408 133.33 224.784 133.73 224.368C134.466 223.568 134.85 222.672 134.85 221.68C134.85 220.688 134.498 219.872 133.826 219.264C133.138 218.656 132.274 218.352 131.218 218.352Z" fill="white"/>
<path d="M54.0051 221.52C54.8789 221.45 55.7582 221.567 56.5138 221.847C57.272 222.128 57.84 222.549 58.1686 223.019C58.4907 223.479 58.572 223.967 58.4384 224.429C58.3014 224.903 57.9294 225.379 57.3141 225.764C56.7001 226.148 55.9007 226.403 55.027 226.478C54.1542 226.552 53.2733 226.44 52.5141 226.163C51.7521 225.886 51.1784 225.468 50.8436 224.999C50.5152 224.539 50.4287 224.051 50.5567 223.589" stroke="white"/>
<path d="M53.3728 224.614C53.5716 224.14 53.539 223.641 53.2633 223.167C52.9803 222.68 52.4437 222.23 51.6918 221.917C50.9428 221.605 50.0498 221.459 49.1499 221.51C48.2493 221.56 47.4133 221.804 46.7653 222.188C46.1157 222.573 45.7184 223.059 45.5692 223.546C45.424 224.019 45.5047 224.52 45.8383 224.991C46.1791 225.473 46.771 225.901 47.5587 226.179C48.3434 226.456 49.2516 226.56 50.1428 226.467" stroke="white"/>
<path d="M101.005 221.52C101.879 221.45 102.758 221.567 103.514 221.847C104.272 222.128 104.84 222.549 105.169 223.019C105.491 223.479 105.572 223.967 105.438 224.429C105.301 224.903 104.929 225.379 104.314 225.764C103.7 226.148 102.901 226.403 102.027 226.478C101.154 226.552 100.273 226.44 99.5141 226.163C98.7521 225.886 98.1784 225.468 97.8436 224.999C97.5152 224.539 97.4287 224.051 97.5567 223.589" stroke="white"/>
<path d="M100.373 224.614C100.572 224.14 100.539 223.641 100.263 223.167C99.9803 222.68 99.4437 222.23 98.6918 221.917C97.9428 221.605 97.0498 221.459 96.1499 221.51C95.2493 221.56 94.4133 221.804 93.7653 222.188C93.1157 222.573 92.7184 223.059 92.5692 223.546C92.424 224.019 92.5047 224.52 92.8383 224.991C93.1791 225.473 93.771 225.901 94.5587 226.179C95.3434 226.456 96.2516 226.56 97.1428 226.467" stroke="white"/>
<path d="M154 222.462L158.952 228L167 219" stroke="#164C86" stroke-width="2"/>
<rect width="161" height="32" transform="translate(20 248)" fill="#CC2D2D" fill-opacity="0.15"/>
<path d="M95 263.5C95 272 95 272 75 272C55 272 55 272 55 263.5C55 255 55 255 75 255C95 255 95 255 95 263.5Z" fill="#CC2D2D" fill-opacity="0.6"/>
<path d="M67.9144 258.576C67.5304 259.008 67.0824 259.392 66.5384 259.744C65.9944 260.064 65.4504 260.288 64.9384 260.432V261.744C66.0104 261.424 66.9064 260.912 67.6264 260.176V270H68.9384V258.576H67.9144ZM71.4563 265.312V266.4H79.5363V265.312H71.4563ZM84.0238 258.576C83.6398 259.008 83.1918 259.392 82.6478 259.744C82.1038 260.064 81.5598 260.288 81.0478 260.432V261.744C82.1198 261.424 83.0158 260.912 83.7358 260.176V270H85.0477V258.576H84.0238Z" fill="white"/>
<path d="M47 263.734C47 272.234 47 272.234 37.5 272.234C28 272.234 28 272.234 28 263.734C28 255.234 28 255.234 37.5 255.234C47 255.234 47 255.234 47 263.734Z" fill="#164C86" fill-opacity="0.6"/>
<path d="M38.3948 258.576C38.0108 259.008 37.5628 259.392 37.0188 259.744C36.4748 260.064 35.9308 260.288 35.4188 260.432V261.744C36.4908 261.424 37.3868 260.912 38.1068 260.176V270H39.4188V258.576H38.3948Z" fill="white"/>
<path d="M143 263.5C143 272 143 272 123 272C103 272 103 272 103 263.5C103 255 103 255 123 255C143 255 143 255 143 263.5Z" fill="#164C86" fill-opacity="0.6"/>
<path d="M113.828 258.576C113.444 259.008 112.996 259.392 112.452 259.744C111.908 260.064 111.364 260.288 110.852 260.432V261.744C111.924 261.424 112.82 260.912 113.54 260.176V270H114.852V258.576H113.828ZM117.37 265.312V266.4H125.45V265.312H117.37ZM131.218 258.352C130.066 258.352 129.122 258.736 128.418 259.504C127.714 260.256 127.346 261.28 127.346 262.56H128.658C128.674 261.552 128.914 260.784 129.362 260.272C129.778 259.728 130.386 259.472 131.17 259.472C131.906 259.472 132.498 259.664 132.914 260.048C133.33 260.432 133.538 260.96 133.538 261.664C133.538 262.4 133.234 263.088 132.658 263.712C132.354 264.032 131.762 264.496 130.866 265.136C129.65 265.968 128.834 266.656 128.386 267.168C127.618 268.016 127.25 268.96 127.25 270H134.866V268.832H128.866C129.074 268.064 129.906 267.184 131.362 266.208C132.546 265.408 133.33 264.784 133.73 264.368C134.466 263.568 134.85 262.672 134.85 261.68C134.85 260.688 134.498 259.872 133.826 259.264C133.138 258.656 132.274 258.352 131.218 258.352Z" fill="white"/>
<path d="M54.0051 261.52C54.8789 261.45 55.7582 261.567 56.5138 261.847C57.272 262.128 57.84 262.549 58.1686 263.019C58.4907 263.479 58.572 263.967 58.4384 264.429C58.3014 264.903 57.9294 265.379 57.3141 265.764C56.7001 266.148 55.9007 266.403 55.027 266.478C54.1542 266.552 53.2733 266.44 52.5141 266.163C51.7521 265.886 51.1784 265.468 50.8436 264.999C50.5152 264.539 50.4287 264.051 50.5567 263.589" stroke="white"/>
<path d="M53.3728 264.614C53.5716 264.14 53.539 263.641 53.2633 263.167C52.9803 262.68 52.4437 262.23 51.6918 261.917C50.9428 261.605 50.0498 261.459 49.1499 261.51C48.2493 261.56 47.4133 261.804 46.7653 262.188C46.1157 262.573 45.7184 263.059 45.5692 263.546C45.424 264.019 45.5047 264.52 45.8383 264.991C46.1791 265.473 46.771 265.901 47.5587 266.179C48.3434 266.456 49.2516 266.56 50.1428 266.467" stroke="white"/>
<path d="M101.005 261.52C101.879 261.45 102.758 261.567 103.514 261.847C104.272 262.128 104.84 262.549 105.169 263.019C105.491 263.479 105.572 263.967 105.438 264.429C105.301 264.903 104.929 265.379 104.314 265.764C103.7 266.148 102.901 266.403 102.027 266.478C101.154 266.552 100.273 266.44 99.5141 266.163C98.7521 265.886 98.1784 265.468 97.8436 264.999C97.5152 264.539 97.4287 264.051 97.5567 263.589" stroke="white"/>
<path d="M100.373 264.614C100.572 264.14 100.539 263.641 100.263 263.167C99.9803 262.68 99.4437 262.23 98.6918 261.917C97.9428 261.605 97.0498 261.459 96.1499 261.51C95.2493 261.56 94.4133 261.804 93.7653 262.188C93.1157 262.573 92.7184 263.059 92.5692 263.546C92.424 264.019 92.5047 264.52 92.8383 264.991C93.1791 265.473 93.771 265.901 94.5587 266.179C95.3434 266.456 96.2516 266.56 97.1428 266.467" stroke="white"/>
<path opacity="0.6" fill-rule="evenodd" clip-rule="evenodd" d="M160.07 264.485L156.535 268.021L157.949 269.435L161.484 265.899L165.02 269.435L166.434 268.021L162.899 264.485L166.434 260.95L165.02 259.536L161.484 263.071L157.949 259.536L156.535 260.95L160.07 264.485Z" fill="#CC2D2D"/>
<rect x="0.25" y="0.25" width="607.5" height="327.5" stroke="#B7D5FF" stroke-opacity="0.5" stroke-width="0.5"/>
</svg>
