<svg width="64" height="64" viewBox="0 0 64 64" fill="none" xmlns="http://www.w3.org/2000/svg">
<g opacity="0.5">
<path opacity="0.2" fill-rule="evenodd" clip-rule="evenodd" d="M36.9106 10.1192C36.1861 8.60091 34.025 8.60091 33.3005 10.1192L30.0455 16.9405L37.7118 29.7624C38.032 30.2979 38.5838 30.6533 39.2038 30.7234L46.7456 31.5753L41.4607 35.8745C40.8767 36.3496 40.6089 37.1124 40.7679 37.8484L42.0745 43.895L35.4997 40.837C34.8864 40.5518 34.1705 40.5958 33.5968 40.9541L29.6351 43.4283L30.6269 38.801C30.696 38.4787 30.6018 38.1431 30.3752 37.9038L18.1518 24.9973L11.6413 25.8555C9.97351 26.0753 9.30569 28.1307 10.5258 29.2888L20.7847 39.0274C21.2757 39.4935 21.4976 40.1764 21.3743 40.8421L18.7988 54.7508C18.4925 56.4049 20.2409 57.6751 21.7194 56.8727L34.1515 50.1252C34.7465 49.8023 35.4645 49.8023 36.0596 50.1252L48.4917 56.8727C49.9702 57.6751 51.7186 56.4049 51.4123 54.7507L48.8368 40.8421C48.7135 40.1764 48.9354 39.4935 49.4264 39.0274L59.6853 29.2888C60.9054 28.1307 60.2376 26.0753 58.5698 25.8555L44.5459 24.0069C43.8747 23.9184 43.2939 23.4964 43.0023 22.8853L36.9106 10.1192Z" fill="white"/>
</g>
</svg>
